<svg width="894" height="287" viewBox="0 0 894 287" fill="none" xmlns="http://www.w3.org/2000/svg">
<rect x="41" y="0.00012207" width="303" height="68" rx="25" fill="#FDB899"/>
<g filter="url(#filter0_d_391_417)">
<path d="M110.91 16.6001H124.86C127.627 16.6001 129.71 17.0501 131.11 17.9501C132.51 18.8168 133.443 20.0668 133.91 21.7001C134.41 23.3335 134.66 25.5168 134.66 28.2501C134.66 30.8501 134.427 32.9668 133.96 34.6001C133.527 36.2335 132.593 37.5335 131.16 38.5001C129.727 39.4668 127.61 39.9501 124.81 39.9501H118.66V51.0001H110.91V16.6001ZM122.16 33.5001C123.627 33.5001 124.677 33.3835 125.31 33.1501C125.943 32.8835 126.36 32.4168 126.56 31.7501C126.76 31.0501 126.86 29.8835 126.86 28.2501C126.86 26.6168 126.76 25.4668 126.56 24.8001C126.36 24.1001 125.943 23.6335 125.31 23.4001C124.677 23.1668 123.627 23.0501 122.16 23.0501H118.66V33.5001H122.16ZM138.979 51.0001V44.1001H146.779V51.0001H138.979ZM171.403 51.0001L169.653 44.1001H159.503L157.853 51.0001H150.053L159.253 16.6001H170.153L179.303 51.0001H171.403ZM164.703 23.6001H164.403L161.053 37.7001H168.103L164.703 23.6001ZM182.631 51.0001V44.1001H190.431V51.0001H182.631ZM219.956 51.0001L215.556 28.4501H215.256L210.856 51.0001H200.656L194.156 16.6001H201.956L206.106 42.3501H206.406L211.306 16.6001H219.756L224.756 42.3501H225.056L228.956 16.6001H236.706L230.156 51.0001H219.956ZM239.76 51.0001V44.1001H247.56V51.0001H239.76ZM264.235 51.4001C260.068 51.4001 256.385 51.1168 253.185 50.5501V44.4501C257.318 44.7835 260.251 44.9501 261.985 44.9501C263.351 44.9501 264.418 44.8835 265.185 44.7501C265.951 44.6168 266.501 44.3835 266.835 44.0501C267.135 43.7501 267.318 43.3835 267.385 42.9501C267.485 42.5168 267.535 41.9001 267.535 41.1001C267.535 40.0335 267.468 39.2835 267.335 38.8501C267.201 38.3835 266.918 38.0501 266.485 37.8501C266.085 37.6501 265.385 37.4668 264.385 37.3001L258.835 36.5001C256.301 36.1335 254.585 35.1501 253.685 33.5501C252.785 31.9501 252.335 29.6501 252.335 26.6501C252.335 23.7501 252.818 21.5335 253.785 20.0001C254.751 18.4668 256.068 17.4501 257.735 16.9501C259.401 16.4501 261.518 16.2001 264.085 16.2001C267.251 16.2001 270.501 16.5335 273.835 17.2001V23.2001C270.835 22.8335 268.168 22.6501 265.835 22.6501C263.368 22.6501 261.785 22.8835 261.085 23.3501C260.685 23.5835 260.435 23.9168 260.335 24.3501C260.235 24.7501 260.185 25.3835 260.185 26.2501C260.185 27.2168 260.235 27.9001 260.335 28.3001C260.435 28.7001 260.651 29.0001 260.985 29.2001C261.351 29.3668 261.968 29.5168 262.835 29.6501L268.785 30.5001C270.118 30.7001 271.218 31.0335 272.085 31.5001C272.985 31.9668 273.718 32.7668 274.285 33.9001C274.985 35.3668 275.335 37.4668 275.335 40.2001C275.335 43.4001 274.885 45.8168 273.985 47.4501C273.085 49.0835 271.851 50.1501 270.285 50.6501C268.751 51.1501 266.735 51.4001 264.235 51.4001Z" fill="black" fill-opacity="0.65" shape-rendering="crispEdges"/>
</g>
<line x1="5" y1="287.007" x2="5" y2="-1.34106e-05" stroke="#FDB899" stroke-width="10"/>
<g filter="url(#filter1_d_391_417)">
<path d="M47.4 172V103.2H88.8V116.1H62.9V130.8H85.1V143.7H62.9V159.1H88.8V172H47.4ZM135.241 172L115.041 132.7H114.541V172H99.6414V103.2H115.341L134.241 139.3H134.741V103.2H149.641V172H135.241ZM162.244 103.2H183.844C192.51 103.2 198.677 104.2 202.344 106.2C206.077 108.2 208.377 111.4 209.244 115.8C210.177 120.2 210.644 127.467 210.644 137.6C210.644 147.733 210.177 155 209.244 159.4C208.377 163.8 206.077 167 202.344 169C198.677 171 192.51 172 183.844 172H162.244V103.2ZM183.444 159.1C187.577 159.1 190.344 158.767 191.744 158.1C193.144 157.433 194.01 155.8 194.344 153.2C194.744 150.533 194.944 145.333 194.944 137.6C194.944 129.867 194.744 124.7 194.344 122.1C193.944 119.433 193.044 117.767 191.644 117.1C190.31 116.433 187.577 116.1 183.444 116.1H177.744V159.1H183.444ZM221.714 172V103.2H237.314V172H221.714ZM285.339 172L265.139 132.7H264.639V172H249.739V103.2H265.439L284.339 139.3H284.839V103.2H299.739V172H285.339ZM336.041 144.3V132H358.541V170.5C355.608 171.167 352.175 171.7 348.241 172.1C344.375 172.567 340.808 172.8 337.541 172.8C329.875 172.8 324.175 171.9 320.441 170.1C316.775 168.233 314.208 164.867 312.741 160C311.341 155.133 310.641 147.667 310.641 137.6C310.641 128 311.375 120.733 312.841 115.8C314.308 110.867 316.941 107.4 320.741 105.4C324.608 103.4 330.375 102.4 338.041 102.4C341.775 102.4 345.608 102.667 349.541 103.2C353.475 103.667 356.375 104.133 358.241 104.6V116.6C351.308 115.733 346.308 115.3 343.241 115.3C337.575 115.3 333.708 115.667 331.641 116.4C329.575 117.133 328.175 118.967 327.441 121.9C326.708 124.767 326.341 130 326.341 137.6C326.341 144.533 326.575 149.5 327.041 152.5C327.575 155.5 328.608 157.533 330.141 158.6C331.741 159.667 334.375 160.2 338.041 160.2C339.641 160.2 341.641 160.133 344.041 160V144.3H336.041ZM392.42 103.2H420.32C425.853 103.2 430.02 104.1 432.82 105.9C435.62 107.633 437.486 110.133 438.42 113.4C439.42 116.667 439.92 121.033 439.92 126.5C439.92 131.7 439.453 135.933 438.52 139.2C437.653 142.467 435.786 145.067 432.92 147C430.053 148.933 425.82 149.9 420.22 149.9H407.92V172H392.42V103.2ZM414.92 137C417.853 137 419.953 136.767 421.22 136.3C422.486 135.767 423.32 134.833 423.72 133.5C424.12 132.1 424.32 129.767 424.32 126.5C424.32 123.233 424.12 120.933 423.72 119.6C423.32 118.2 422.486 117.267 421.22 116.8C419.953 116.333 417.853 116.1 414.92 116.1H407.92V137H414.92ZM449.158 172V103.2H490.558V116.1H464.658V130.8H486.858V143.7H464.658V159.1H490.558V172H449.158ZM512.699 172V116.6H496.499V103.2H544.599V116.6H528.299V172H512.699Z" fill="#F9F8EC"/>
</g>
<g filter="url(#filter2_d_391_417)">
<path d="M81.2 266V238.2H62.8V266H47.2V197.2H62.8V224.6H81.2V197.2H96.8V266H81.2ZM133.709 266.8C125.376 266.8 119.409 265.8 115.809 263.8C112.276 261.733 110.043 258.467 109.109 254C108.243 249.467 107.809 242 107.809 231.6C107.809 221.2 108.243 213.767 109.109 209.3C110.043 204.767 112.276 201.5 115.809 199.5C119.409 197.433 125.376 196.4 133.709 196.4C142.109 196.4 148.076 197.433 151.609 199.5C155.209 201.5 157.443 204.733 158.309 209.2C159.176 213.667 159.609 221.133 159.609 231.6C159.609 242.067 159.176 249.533 158.309 254C157.443 258.467 155.209 261.733 151.609 263.8C148.076 265.8 142.109 266.8 133.709 266.8ZM133.709 253.9C137.309 253.9 139.709 253.533 140.909 252.8C142.176 252.067 142.976 250.333 143.309 247.6C143.643 244.867 143.809 239.533 143.809 231.6C143.809 223.667 143.643 218.333 143.309 215.6C142.976 212.867 142.176 211.133 140.909 210.4C139.709 209.667 137.309 209.3 133.709 209.3C130.109 209.3 127.676 209.667 126.409 210.4C125.209 211.133 124.443 212.867 124.109 215.6C123.776 218.333 123.609 223.667 123.609 231.6C123.609 239.533 123.776 244.867 124.109 247.6C124.443 250.333 125.209 252.067 126.409 252.8C127.676 253.533 130.109 253.9 133.709 253.9ZM223.64 266V218.4H222.94L210.44 266H198.24L185.84 218.4H185.14V266H170.54V197.2H192.84L204.34 241.3H205.04L216.54 197.2H238.64V266H223.64ZM251.209 266V197.2H292.609V210.1H266.709V224.8H288.909V237.7H266.709V253.1H292.609V266H251.209ZM303.65 266V197.2H319.15V252.6H341.95V266H303.65ZM350.232 266V197.2H391.632V210.1H365.732V224.8H387.932V237.7H365.732V253.1H391.632V266H350.232ZM423.873 266.8C415.54 266.8 408.173 266.233 401.773 265.1V252.9C410.04 253.567 415.907 253.9 419.373 253.9C422.107 253.9 424.24 253.767 425.773 253.5C427.307 253.233 428.407 252.767 429.073 252.1C429.673 251.5 430.04 250.767 430.173 249.9C430.373 249.033 430.473 247.8 430.473 246.2C430.473 244.067 430.34 242.567 430.073 241.7C429.807 240.767 429.24 240.1 428.373 239.7C427.573 239.3 426.173 238.933 424.173 238.6L413.073 237C408.007 236.267 404.573 234.3 402.773 231.1C400.973 227.9 400.073 223.3 400.073 217.3C400.073 211.5 401.04 207.067 402.973 204C404.907 200.933 407.54 198.9 410.873 197.9C414.207 196.9 418.44 196.4 423.573 196.4C429.907 196.4 436.407 197.067 443.073 198.4V210.4C437.073 209.667 431.74 209.3 427.073 209.3C422.14 209.3 418.973 209.767 417.573 210.7C416.773 211.167 416.273 211.833 416.073 212.7C415.873 213.5 415.773 214.767 415.773 216.5C415.773 218.433 415.873 219.8 416.073 220.6C416.273 221.4 416.707 222 417.373 222.4C418.107 222.733 419.34 223.033 421.073 223.3L432.973 225C435.64 225.4 437.84 226.067 439.573 227C441.373 227.933 442.84 229.533 443.973 231.8C445.373 234.733 446.073 238.933 446.073 244.4C446.073 250.8 445.173 255.633 443.373 258.9C441.573 262.167 439.107 264.3 435.973 265.3C432.907 266.3 428.873 266.8 423.873 266.8ZM477.584 266.8C469.251 266.8 461.884 266.233 455.484 265.1V252.9C463.751 253.567 469.618 253.9 473.084 253.9C475.818 253.9 477.951 253.767 479.484 253.5C481.018 253.233 482.118 252.767 482.784 252.1C483.384 251.5 483.751 250.767 483.884 249.9C484.084 249.033 484.184 247.8 484.184 246.2C484.184 244.067 484.051 242.567 483.784 241.7C483.518 240.767 482.951 240.1 482.084 239.7C481.284 239.3 479.884 238.933 477.884 238.6L466.784 237C461.718 236.267 458.284 234.3 456.484 231.1C454.684 227.9 453.784 223.3 453.784 217.3C453.784 211.5 454.751 207.067 456.684 204C458.618 200.933 461.251 198.9 464.584 197.9C467.918 196.9 472.151 196.4 477.284 196.4C483.618 196.4 490.118 197.067 496.784 198.4V210.4C490.784 209.667 485.451 209.3 480.784 209.3C475.851 209.3 472.684 209.767 471.284 210.7C470.484 211.167 469.984 211.833 469.784 212.7C469.584 213.5 469.484 214.767 469.484 216.5C469.484 218.433 469.584 219.8 469.784 220.6C469.984 221.4 470.418 222 471.084 222.4C471.818 222.733 473.051 223.033 474.784 223.3L486.684 225C489.351 225.4 491.551 226.067 493.284 227C495.084 227.933 496.551 229.533 497.684 231.8C499.084 234.733 499.784 238.933 499.784 244.4C499.784 250.8 498.884 255.633 497.084 258.9C495.284 262.167 492.818 264.3 489.684 265.3C486.618 266.3 482.584 266.8 477.584 266.8ZM545.495 266L525.295 226.7H524.795V266H509.895V197.2H525.595L544.495 233.3H544.995V197.2H559.895V266H545.495ZM572.498 266V197.2H613.898V210.1H587.998V224.8H610.198V237.7H587.998V253.1H613.898V266H572.498ZM646.139 266.8C637.806 266.8 630.439 266.233 624.039 265.1V252.9C632.306 253.567 638.172 253.9 641.639 253.9C644.372 253.9 646.506 253.767 648.039 253.5C649.572 253.233 650.672 252.767 651.339 252.1C651.939 251.5 652.306 250.767 652.439 249.9C652.639 249.033 652.739 247.8 652.739 246.2C652.739 244.067 652.606 242.567 652.339 241.7C652.072 240.767 651.506 240.1 650.639 239.7C649.839 239.3 648.439 238.933 646.439 238.6L635.339 237C630.272 236.267 626.839 234.3 625.039 231.1C623.239 227.9 622.339 223.3 622.339 217.3C622.339 211.5 623.306 207.067 625.239 204C627.172 200.933 629.806 198.9 633.139 197.9C636.472 196.9 640.706 196.4 645.839 196.4C652.172 196.4 658.672 197.067 665.339 198.4V210.4C659.339 209.667 654.006 209.3 649.339 209.3C644.406 209.3 641.239 209.767 639.839 210.7C639.039 211.167 638.539 211.833 638.339 212.7C638.139 213.5 638.039 214.767 638.039 216.5C638.039 218.433 638.139 219.8 638.339 220.6C638.539 221.4 638.972 222 639.639 222.4C640.372 222.733 641.606 223.033 643.339 223.3L655.239 225C657.906 225.4 660.106 226.067 661.839 227C663.639 227.933 665.106 229.533 666.239 231.8C667.639 234.733 668.339 238.933 668.339 244.4C668.339 250.8 667.439 255.633 665.639 258.9C663.839 262.167 661.372 264.3 658.239 265.3C655.172 266.3 651.139 266.8 646.139 266.8ZM699.85 266.8C691.517 266.8 684.15 266.233 677.75 265.1V252.9C686.017 253.567 691.883 253.9 695.35 253.9C698.083 253.9 700.217 253.767 701.75 253.5C703.283 253.233 704.383 252.767 705.05 252.1C705.65 251.5 706.017 250.767 706.15 249.9C706.35 249.033 706.45 247.8 706.45 246.2C706.45 244.067 706.317 242.567 706.05 241.7C705.783 240.767 705.217 240.1 704.35 239.7C703.55 239.3 702.15 238.933 700.15 238.6L689.05 237C683.983 236.267 680.55 234.3 678.75 231.1C676.95 227.9 676.05 223.3 676.05 217.3C676.05 211.5 677.017 207.067 678.95 204C680.883 200.933 683.517 198.9 686.85 197.9C690.183 196.9 694.417 196.4 699.55 196.4C705.883 196.4 712.383 197.067 719.05 198.4V210.4C713.05 209.667 707.717 209.3 703.05 209.3C698.117 209.3 694.95 209.767 693.55 210.7C692.75 211.167 692.25 211.833 692.05 212.7C691.85 213.5 691.75 214.767 691.75 216.5C691.75 218.433 691.85 219.8 692.05 220.6C692.25 221.4 692.683 222 693.35 222.4C694.083 222.733 695.317 223.033 697.05 223.3L708.95 225C711.617 225.4 713.817 226.067 715.55 227C717.35 227.933 718.817 229.533 719.95 231.8C721.35 234.733 722.05 238.933 722.05 244.4C722.05 250.8 721.15 255.633 719.35 258.9C717.55 262.167 715.083 264.3 711.95 265.3C708.883 266.3 704.85 266.8 699.85 266.8Z" fill="url(#paint0_linear_391_417)"/>
</g>
<defs>
<filter id="filter0_d_391_417" x="104.91" y="14.2001" width="176.425" height="47.2" filterUnits="userSpaceOnUse" color-interpolation-filters="sRGB">
<feFlood flood-opacity="0" result="BackgroundImageFix"/>
<feColorMatrix in="SourceAlpha" type="matrix" values="0 0 0 0 0 0 0 0 0 0 0 0 0 0 0 0 0 0 127 0" result="hardAlpha"/>
<feOffset dy="4"/>
<feGaussianBlur stdDeviation="3"/>
<feComposite in2="hardAlpha" operator="out"/>
<feColorMatrix type="matrix" values="0 0 0 0 0 0 0 0 0 0 0 0 0 0 0 0 0 0 0.2 0"/>
<feBlend mode="normal" in2="BackgroundImageFix" result="effect1_dropShadow_391_417"/>
<feBlend mode="normal" in="SourceGraphic" in2="effect1_dropShadow_391_417" result="shape"/>
</filter>
<filter id="filter1_d_391_417" x="41.4" y="100.4" width="509.199" height="82.4" filterUnits="userSpaceOnUse" color-interpolation-filters="sRGB">
<feFlood flood-opacity="0" result="BackgroundImageFix"/>
<feColorMatrix in="SourceAlpha" type="matrix" values="0 0 0 0 0 0 0 0 0 0 0 0 0 0 0 0 0 0 127 0" result="hardAlpha"/>
<feOffset dy="4"/>
<feGaussianBlur stdDeviation="3"/>
<feComposite in2="hardAlpha" operator="out"/>
<feColorMatrix type="matrix" values="0 0 0 0 0 0 0 0 0 0 0 0 0 0 0 0 0 0 0.5 0"/>
<feBlend mode="normal" in2="BackgroundImageFix" result="effect1_dropShadow_391_417"/>
<feBlend mode="normal" in="SourceGraphic" in2="effect1_dropShadow_391_417" result="shape"/>
</filter>
<filter id="filter2_d_391_417" x="41.2" y="194.4" width="686.85" height="82.4" filterUnits="userSpaceOnUse" color-interpolation-filters="sRGB">
<feFlood flood-opacity="0" result="BackgroundImageFix"/>
<feColorMatrix in="SourceAlpha" type="matrix" values="0 0 0 0 0 0 0 0 0 0 0 0 0 0 0 0 0 0 127 0" result="hardAlpha"/>
<feOffset dy="4"/>
<feGaussianBlur stdDeviation="3"/>
<feComposite in2="hardAlpha" operator="out"/>
<feColorMatrix type="matrix" values="0 0 0 0 0 0 0 0 0 0 0 0 0 0 0 0 0 0 0.5 0"/>
<feBlend mode="normal" in2="BackgroundImageFix" result="effect1_dropShadow_391_417"/>
<feBlend mode="normal" in="SourceGraphic" in2="effect1_dropShadow_391_417" result="shape"/>
</filter>
<linearGradient id="paint0_linear_391_417" x1="624.5" y1="281" x2="165.609" y2="178.882" gradientUnits="userSpaceOnUse">
<stop stop-color="#ED6EAF"/>
<stop offset="1" stop-color="#FDB899"/>
</linearGradient>
</defs>
</svg>
